<?xml version="1.0" encoding="utf-8"?>
<!-- Generator: Adobe Illustrator 27.5.0, SVG Export Plug-In . SVG Version: 6.00 Build 0)  -->
<svg version="1.1" id="Layer_1" xmlns="http://www.w3.org/2000/svg" xmlns:xlink="http://www.w3.org/1999/xlink" x="0px" y="0px"
	 viewBox="0 0 1000 1000" style="enable-background:new 0 0 1000 1000;" xml:space="preserve">
<g transform="translate(0,0) scale(1)">
	<g id="all_2">
		<path style="fill:#FF3D3E;" d="M0,0h51.5L25,50L0,0z"/>
		<path style="fill:#F82C22;" d="M51.5,0L37,119L25,50L51.5,0z"/>
		<path style="fill:#FE2939;" d="M37,119l-37,1l25-70L37,119z"/>
		<path style="fill:#FF1B37;" d="M0,120V0l25,50L0,120z"/>
		<path style="fill:#FF3429;" d="M51.5,0H105L75,50L51.5,0z"/>
		<path style="fill:#FF3131;" d="M105,0L89,92L75,50L105,0z"/>
		<path style="fill:#F6121C;" d="M89,92l-52,27l38-69L89,92z"/>
		<path style="fill:#FF0E37;" d="M37,119L51.5,0L75,50L37,119z"/>
		<path style="fill:#FF2546;" d="M105,0h60.5L125,50L105,0z"/>
		<path style="fill:#F62F26;" d="M165.5,0L159,71l-34-21L165.5,0z"/>
		<path style="fill:#EE0F25;" d="M159,71L89,92l36-42L159,71z"/>
		<path style="fill:#F71D1D;" d="M89,92l16-92l20,50L89,92z"/>
		<path style="fill:#ED0B21;" d="M165.5,0H202l-27,50L165.5,0z"/>
		<path style="fill:#F22525;" d="M202,0l-4,126l-23-76L202,0z"/>
		<path style="fill:#EE2736;" d="M198,126l-39-55l16-21L198,126z"/>
		<path style="fill:#ED2433;" d="M159,71l6.5-71l9.5,50L159,71z"/>
		<path style="fill:#DF0F2D;" d="M202,0h61l-38,50L202,0z"/>
		<path style="fill:#F9122F;" d="M263,0l-26,104l-12-54L263,0z"/>
		<path style="fill:#FA132D;" d="M237,104l-39,22l27-76L237,104z"/>
		<path style="fill:#EF002E;" d="M198,126l4-126l23,50L198,126z"/>
		<path style="fill:#F7283A;" d="M263,0h45.5L275,50L263,0z"/>
		<path style="fill:#E51D1E;" d="M308.5,0L291,75l-16-25L308.5,0z"/>
		<path style="fill:#EC1D31;" d="M291,75l-54,29l38-54L291,75z"/>
		<path style="fill:#F11129;" d="M237,104L263,0l12,50L237,104z"/>
		<path style="fill:#D81B10;" d="M308.5,0H360l-35,50L308.5,0z"/>
		<path style="fill:#DD2018;" d="M360,0l-2,76l-33-26L360,0z"/>
		<path style="fill:#E90019;" d="M358,76l-67-1l34-25L358,76z"/>
		<path style="fill:#E30014;" d="M291,75l17.5-75L325,50L291,75z"/>
		<path style="fill:#E0000C;" d="M360,0h39.5L375,50L360,0z"/>
		<path style="fill:#F91037;" d="M399.5,0L391,112l-16-62L399.5,0z"/>
		<path style="fill:#E60D27;" d="M391,112l-33-36l17-26L391,112z"/>
		<path style="fill:#FB2926;" d="M358,76l2-76l15,50L358,76z"/>
		<path style="fill:#F02212;" d="M399.5,0H455l-30,50L399.5,0z"/>
		<path style="fill:#E00321;" d="M455,0l-3.5,96L425,50L455,0z"/>
		<path style="fill:#D20023;" d="M451.5,96L391,112l34-62L451.5,96z"/>
		<path style="fill:#F6231B;" d="M391,112l8.5-112L425,50L391,112z"/>
		<path style="fill:#E91A24;" d="M455,0h43l-23,50L455,0z"/>
		<path style="fill:#ED090B;" d="M498,0l-6.5,96L475,50L498,0z"/>
		<path style="fill:#E40220;" d="M491.5,96h-40L475,50L491.5,96z"/>
		<path style="fill:#E30001;" d="M451.5,96L455,0l20,50L451.5,96z"/>
		<path style="fill:#EA091A;" d="M498,0h64.5L525,50L498,0z"/>
		<path style="fill:#DF0725;" d="M562.5,0L541,86l-16-36L562.5,0z"/>
		<path style="fill:#DB2329;" d="M541,86l-49.5,10L525,50L541,86z"/>
		<path style="fill:#D00A0D;" d="M491.5,96L498,0l27,50L491.5,96z"/>
		<path style="fill:#D2001C;" d="M562.5,0h48L575,50L562.5,0z"/>
		<path style="fill:#DC2124;" d="M610.5,0l4.5,73l-40-23L610.5,0z"/>
		<path style="fill:#DE1816;" d="M615,73l-74,13l34-36L615,73z"/>
		<path style="fill:#EC1100;" d="M541,86l21.5-86L575,50L541,86z"/>
		<path style="fill:#DE101D;" d="M610.5,0H650l-25,50L610.5,0z"/>
		<path style="fill:#E20F08;" d="M650,0l-0.5,93L625,50L650,0z"/>
		<path style="fill:#E9030E;" d="M649.5,93L615,73l10-23L649.5,93z"/>
		<path style="fill:#E20612;" d="M615,73l-4.5-73L625,50L615,73z"/>
		<path style="fill:#DA0C0E;" d="M650,0h47l-22,50L650,0z"/>
		<path style="fill:#F41A1E;" d="M697,0l-6,91l-16-41L697,0z"/>
		<path style="fill:#DB0D11;" d="M691,91l-41.5,2L675,50L691,91z"/>
		<path style="fill:#EF0019;" d="M649.5,93L650,0l25,50L649.5,93z"/>
		<path style="fill:#D61B00;" d="M697,0h67.5L725,50L697,0z"/>
		<path style="fill:#C60000;" d="M764.5,0l-26,102L725,50L764.5,0z"/>
		<path style="fill:#D70D00;" d="M738.5,102L691,91l34-41L738.5,102z"/>
		<path style="fill:#FC081F;" d="M691,91l6-91l28,50L691,91z"/>
		<path style="fill:#DE2321;" d="M764.5,0h31L775,50L764.5,0z"/>
		<path style="fill:#E30E12;" d="M795.5,0L806,71l-31-21L795.5,0z"/>
		<path style="fill:#F92206;" d="M806,71l-67.5,31L775,50L806,71z"/>
		<path style="fill:#D31514;" d="M738.5,102l26-102L775,50L738.5,102z"/>
		<path style="fill:#D5070D;" d="M795.5,0h46L825,50L795.5,0z"/>
		<path style="fill:#C90000;" d="M841.5,0L862,97l-37-47L841.5,0z"/>
		<path style="fill:#E61303;" d="M862,97l-56-26l19-21L862,97z"/>
		<path style="fill:#D0100B;" d="M806,71L795.5,0L825,50L806,71z"/>
		<path style="fill:#CC0000;" d="M841.5,0h56L875,50L841.5,0z"/>
		<path style="fill:#D5050A;" d="M897.5,0l-8,123L875,50L897.5,0z"/>
		<path style="fill:#D21600;" d="M889.5,123L862,97l13-47L889.5,123z"/>
		<path style="fill:#D7020B;" d="M862,97L841.5,0L875,50L862,97z"/>
		<path style="fill:#E8090A;" d="M897.5,0h61L925,50L897.5,0z"/>
		<path style="fill:#C80400;" d="M958.5,0l-8,124L925,50L958.5,0z"/>
		<path style="fill:#EE1308;" d="M950.5,124l-61-1L925,50L950.5,124z"/>
		<path style="fill:#E81217;" d="M889.5,123l8-123L925,50L889.5,123z"/>
		<path style="fill:#D0150B;" d="M958.5,0h41.5l-25,50L958.5,0z"/>
		<path style="fill:#E90000;" d="M1000,0v100l-25-50L1000,0z"/>
		<path style="fill:#D50000;" d="M1000,100l-49.5,24L975,50L1000,100z"/>
		<path style="fill:#DF0007;" d="M950.5,124l8-124L975,50L950.5,124z"/>
		<path style="fill:#FF0838;" d="M0,120l37-1l-12,31L0,120z"/>
		<path style="fill:#FF362A;" d="M37,119l9.5,87L25,150L37,119z"/>
		<path style="fill:#ED1125;" d="M46.5,206L0,204l25-54L46.5,206z"/>
		<path style="fill:#FF3345;" d="M0,204v-84l25,30L0,204z"/>
		<path style="fill:#F2002C;" d="M37,119l52-27l-22.75,93.75L37,119z"/>
		<path style="fill:#FF1541;" d="M89,92l19,114l-41.75-20.25L89,92z"/>
		<path style="fill:#F21329;" d="M108,206H46.5l19.75-20.25L108,206z"/>
		<path style="fill:#FF2327;" d="M46.5,206L37,119l29.25,66.75L46.5,206z"/>
		<path style="fill:#FF2C21;" d="M89,92l70-21l-44.25,93L89,92z"/>
		<path style="fill:#FF113E;" d="M159,71l-21.5,159l-22.75-66L159,71z"/>
		<path style="fill:#FF0E3A;" d="M137.5,230L108,206l6.75-42L137.5,230z"/>
		<path style="fill:#F30C3B;" d="M108,206L89,92l25.75,72L108,206z"/>
		<path style="fill:#DF1229;" d="M159,71l39,55l-34.25,47.75L159,71z"/>
		<path style="fill:#FE2A1F;" d="M198,126l-2,63l-32.25-15.25L198,126z"/>
		<path style="fill:#FB002E;" d="M196,189l-58.5,41l26.25-56.25L196,189z"/>
		<path style="fill:#DF120E;" d="M137.5,230L159,71l4.75,102.75L137.5,230z"/>
		<path style="fill:#E20B33;" d="M198,126l39-22l1.5,53.5L198,126z"/>
		<path style="fill:#D6170C;" d="M237,104l-1.5,112l3-58.5L237,104z"/>
		<path style="fill:#F32B24;" d="M235.5,216L196,189l42.5-31.5L235.5,216z"/>
		<path style="fill:#F1052B;" d="M196,189l2-63l40.5,31.5L196,189z"/>
		<path style="fill:#EE2122;" d="M237,104l54-29l-15.75,88L237,104z"/>
		<path style="fill:#F8161E;" d="M291,75l-3.5,146l-12.25-58L291,75z"/>
		<path style="fill:#DA0D2E;" d="M287.5,221l-52-5l39.75-53L287.5,221z"/>
		<path style="fill:#E9172F;" d="M235.5,216l1.5-112l38.25,59L235.5,216z"/>
		<path style="fill:#E00A1A;" d="M291,75l67,1l-41.75,58.75L291,75z"/>
		<path style="fill:#E51820;" d="M358,76l7.5,135l-49.25-76.25L358,76z"/>
		<path style="fill:#E62939;" d="M365.5,211l-78,10l28.75-86.25L365.5,211z"/>
		<path style="fill:#D00622;" d="M287.5,221L291,75l25.25,59.75L287.5,221z"/>
		<path style="fill:#DD111F;" d="M358,76l33,36l-7.5,55L358,76z"/>
		<path style="fill:#F60822;" d="M391,112l15,111l-22.5-56L391,112z"/>
		<path style="fill:#E3000F;" d="M406,223l-40.5-12l18-44L406,223z"/>
		<path style="fill:#DD0716;" d="M365.5,211L358,76l25.5,91L365.5,211z"/>
		<path style="fill:#E30E09;" d="M391,112l60.5-16l-41.75,28L391,112z"/>
		<path style="fill:#ED140A;" d="M451.5,96l4,104l-45.75-76L451.5,96z"/>
		<path style="fill:#DE060A;" d="M455.5,200L406,223l3.75-99L455.5,200z"/>
		<path style="fill:#CE0015;" d="M406,223l-15-111l18.75,12L406,223z"/>
		<path style="fill:#D00400;" d="M451.5,96h40l-28.125,37L451.5,96z"/>
		<path style="fill:#EF1821;" d="M491.5,96l21.5,83l-49.625-46L491.5,96z"/>
		<path style="fill:#E6080F;" d="M513,179l-57.5,21l7.875-67L513,179z"/>
		<path style="fill:#E50B13;" d="M455.5,200l-4-104l11.875,37L455.5,200z"/>
		<path style="fill:#E20D17;" d="M491.5,96L541,86l-32.625,51L491.5,96z"/>
		<path style="fill:#D6141E;" d="M541,86l20,143l-52.625-92L541,86z"/>
		<path style="fill:#D30420;" d="M561,229l-48-50l-4.625-42L561,229z"/>
		<path style="fill:#EC1A26;" d="M513,179l-21.5-83l16.875,41L513,179z"/>
		<path style="fill:#E40000;" d="M541,86l74-13l-39.75,78.5L541,86z"/>
		<path style="fill:#E3241B;" d="M615,73l-15.5,126l-24.25-47.5L615,73z"/>
		<path style="fill:#E5122F;" d="M599.5,199L561,229l14.25-77.5L599.5,199z"/>
		<path style="fill:#D9001E;" d="M561,229L541,86l34.25,65.5L561,229z"/>
		<path style="fill:#E41103;" d="M615,73l34.5,20l-6.75,76.25L615,73z"/>
		<path style="fill:#DE1006;" d="M649.5,93L643,221l-0.25-51.75L649.5,93z"/>
		<path style="fill:#E6000A;" d="M643,221l-43.5-22l43.25-29.75L643,221z"/>
		<path style="fill:#EA1416;" d="M599.5,199L615,73l27.75,96.25L599.5,199z"/>
		<path style="fill:#F10217;" d="M649.5,93l41.5-2l-5.125,65.25L649.5,93z"/>
		<path style="fill:#C10000;" d="M691,91l-1,115l-4.125-49.75L691,91z"/>
		<path style="fill:#CD0414;" d="M690,206l-47,15l42.875-64.75L690,206z"/>
		<path style="fill:#E1261B;" d="M643,221l6.5-128l36.375,63.25L643,221z"/>
		<path style="fill:#E21010;" d="M691,91l47.5,11l-15.25,51.75L691,91z"/>
		<path style="fill:#C7101A;" d="M738.5,102L756,222l-32.75-68.25L738.5,102z"/>
		<path style="fill:#D9001E;" d="M756,222l-66-16l33.25-52.25L756,222z"/>
		<path style="fill:#C8000E;" d="M690,206l1-115l32.25,62.75L690,206z"/>
		<path style="fill:#E01715;" d="M738.5,102L806,71l-28.875,57.5L738.5,102z"/>
		<path style="fill:#D9011D;" d="M806,71l2,111l-30.875-53.5L806,71z"/>
		<path style="fill:#F00D10;" d="M808,182l-52,40l21.125-93.5L808,182z"/>
		<path style="fill:#D40001;" d="M756,222l-17.5-120l38.625,26.5L756,222z"/>
		<path style="fill:#E71400;" d="M806,71l56,26l-35,21.75L806,71z"/>
		<path style="fill:#D10D05;" d="M862,97l-1.5,120L827,118.75L862,97z"/>
		<path style="fill:#D20000;" d="M860.5,217L808,182l19-63.25L860.5,217z"/>
		<path style="fill:#C70E00;" d="M808,182l-2-111l21,47.75L808,182z"/>
		<path style="fill:#D20A00;" d="M862,97l27.5,26l-2.5,49.25L862,97z"/>
		<path style="fill:#D2121C;" d="M889.5,123l24,53l-26.5-3.75L889.5,123z"/>
		<path style="fill:#D80000;" d="M913.5,176l-53,41l26.5-44.75L913.5,176z"/>
		<path style="fill:#C20008;" d="M860.5,217L862,97l25,75.25L860.5,217z"/>
		<path style="fill:#E4130C;" d="M889.5,123l61,1l-21.625,14.75L889.5,123z"/>
		<path style="fill:#DE0E00;" d="M950.5,124l-1,66l-20.625-51.25L950.5,124z"/>
		<path style="fill:#E01620;" d="M949.5,190l-36-14l15.375-37.25L949.5,190z"/>
		<path style="fill:#E40411;" d="M913.5,176l-24-53l39.375,15.75L913.5,176z"/>
		<path style="fill:#C00000;" d="M950.5,124l49.5-24l-10.375,53L950.5,124z"/>
		<path style="fill:#D00200;" d="M1000,100v76l-10.375-23L1000,100z"/>
		<path style="fill:#D70815;" d="M1000,176l-50.5,14l40.125-37L1000,176z"/>
		<path style="fill:#D10909;" d="M949.5,190l1-66l39.125,29L949.5,190z"/>
		<path style="fill:#FF2B33;" d="M0,204l46.5,2L25,250L0,204z"/>
		<path style="fill:#E20028;" d="M46.5,206l3,65L25,250L46.5,206z"/>
		<path style="fill:#EF111B;" d="M49.5,271L0,284l25-34L49.5,271z"/>
		<path style="fill:#DE0323;" d="M0,284v-80l25,46L0,284z"/>
		<path style="fill:#EB2130;" d="M46.5,206H108l-23.875,56.5L46.5,206z"/>
		<path style="fill:#F4183D;" d="M108,206l-12,81l-11.875-24.5L108,206z"/>
		<path style="fill:#FF2D43;" d="M96,287l-46.5-16l34.625-8.5L96,287z"/>
		<path style="fill:#EB0E2A;" d="M49.5,271l-3-65l37.625,56.5L49.5,271z"/>
		<path style="fill:#F1032C;" d="M108,206l29.5,24l3.5,49.5L108,206z"/>
		<path style="fill:#F6131D;" d="M137.5,230l1,84l2.5-34.5L137.5,230z"/>
		<path style="fill:#E90337;" d="M138.5,314L96,287l45-7.5L138.5,314z"/>
		<path style="fill:#FF113C;" d="M96,287l12-81l33,73.5L96,287z"/>
		<path style="fill:#FF2833;" d="M137.5,230l58.5-41l-20.625,50.5L137.5,230z"/>
		<path style="fill:#F72021;" d="M196,189l-4,105l-16.625-54.5L196,189z"/>
		<path style="fill:#EE0E29;" d="M192,294l-53.5,20l36.875-74.5L192,294z"/>
		<path style="fill:#E31516;" d="M138.5,314l-1-84l37.875,9.5L138.5,314z"/>
		<path style="fill:#F9201E;" d="M196,189l39.5,27l-12,50.25L196,189z"/>
		<path style="fill:#FF2630;" d="M235.5,216l20,112l-32-61.75L235.5,216z"/>
		<path style="fill:#E51D0B;" d="M255.5,328L192,294l31.5-27.75L255.5,328z"/>
		<path style="fill:#E90816;" d="M192,294l4-105l27.5,77.25L192,294z"/>
		<path style="fill:#FB1016;" d="M235.5,216l52,5l-5.625,38L235.5,216z"/>
		<path style="fill:#DA0A0A;" d="M287.5,221l24.5,74l-30.125-36L287.5,221z"/>
		<path style="fill:#DD1A14;" d="M312,295l-56.5,33l26.375-69L312,295z"/>
		<path style="fill:#D61822;" d="M255.5,328l-20-112l46.375,43L255.5,328z"/>
		<path style="fill:#E20017;" d="M287.5,221l78-10l-48.625,68.25L287.5,221z"/>
		<path style="fill:#D6000A;" d="M365.5,211l-5.5,85l-43.125-16.75L365.5,211z"/>
		<path style="fill:#DE0D26;" d="M360,296l-48-1l4.875-15.75L360,296z"/>
		<path style="fill:#F20013;" d="M312,295l-24.5-74l29.375,58.25L312,295z"/>
		<path style="fill:#EF1819;" d="M365.5,211l40.5,12l-35.625,31.75L365.5,211z"/>
		<path style="fill:#DE1314;" d="M406,223l9.5,51l-45.125-19.25L406,223z"/>
		<path style="fill:#EA201F;" d="M415.5,274L360,296l10.375-41.25L415.5,274z"/>
		<path style="fill:#CF000F;" d="M360,296l5.5-85l4.875,43.75L360,296z"/>
		<path style="fill:#EA130A;" d="M406,223l49.5-23L418,280.75L406,223z"/>
		<path style="fill:#E5141F;" d="M455.5,200L445,328l-27-47.25L455.5,200z"/>
		<path style="fill:#DB0321;" d="M445,328l-29.5-54l2.5,6.75L445,328z"/>
		<path style="fill:#F50D2F;" d="M415.5,274l-9.5-51l12,57.75L415.5,274z"/>
		<path style="fill:#E82322;" d="M455.5,200l57.5-21l-34.625,91L455.5,200z"/>
		<path style="fill:#DC1619;" d="M513,179l-18,98l-16.625-7L513,179z"/>
		<path style="fill:#D9050A;" d="M495,277l-50,51l33.375-58L495,277z"/>
		<path style="fill:#E7001A;" d="M445,328l10.5-128l22.875,70L445,328z"/>
		<path style="fill:#EE061D;" d="M513,179l48,50l-19.25,24.75L513,179z"/>
		<path style="fill:#DE131E;" d="M561,229l4,54l-23.25-29.25L561,229z"/>
		<path style="fill:#D51A18;" d="M565,283l-70-6l46.75-23.25L565,283z"/>
		<path style="fill:#DA0007;" d="M495,277l18-98l28.75,74.75L495,277z"/>
		<path style="fill:#C00F09;" d="M561,229l38.5-30l-19.25,39.25L561,229z"/>
		<path style="fill:#DF0023;" d="M599.5,199l6.5,91l-25.75-51.75L599.5,199z"/>
		<path style="fill:#E60B15;" d="M606,290l-41-7l15.25-44.75L606,290z"/>
		<path style="fill:#D51F22;" d="M565,283l-4-54l19.25,9.25L565,283z"/>
		<path style="fill:#DB0700;" d="M599.5,199l43.5,22l-27.625,49.75L599.5,199z"/>
		<path style="fill:#EB020C;" d="M643,221l6.5,51l-34.125-1.25L643,221z"/>
		<path style="fill:#D21012;" d="M649.5,272L606,290l9.375-19.25L649.5,272z"/>
		<path style="fill:#DC1222;" d="M606,290l-6.5-91l15.875,71.75L606,290z"/>
		<path style="fill:#D3132C;" d="M643,221l47-15l-32.25,43.25L643,221z"/>
		<path style="fill:#C2090B;" d="M690,206l19,91l-51.25-47.75L690,206z"/>
		<path style="fill:#EE0C1A;" d="M709,297l-59.5-25l8.25-22.75L709,297z"/>
		<path style="fill:#D30813;" d="M649.5,272l-6.5-51l14.75,28.25L649.5,272z"/>
		<path style="fill:#DF1E09;" d="M690,206l66,16l-25.5,13.5L690,206z"/>
		<path style="fill:#BF000C;" d="M756,222l-3,55l-22.5-41.5L756,222z"/>
		<path style="fill:#F10009;" d="M753,277l-44,20l21.5-61.5L753,277z"/>
		<path style="fill:#E5051F;" d="M709,297l-19-91l40.5,29.5L709,297z"/>
		<path style="fill:#D10015;" d="M756,222l52-40l-27,55.5L756,222z"/>
		<path style="fill:#C60000;" d="M808,182l-12,99l-15-43.5L808,182z"/>
		<path style="fill:#D81201;" d="M796,281l-43-4l28-39.5L796,281z"/>
		<path style="fill:#E7051B;" d="M753,277l3-55l25,15.5L753,277z"/>
		<path style="fill:#E81721;" d="M808,182l52.5,35L823,253.5L808,182z"/>
		<path style="fill:#CC131F;" d="M860.5,217L837,284l-14-30.5L860.5,217z"/>
		<path style="fill:#C90003;" d="M837,284l-41-3l27-27.5L837,284z"/>
		<path style="fill:#CD0000;" d="M796,281l12-99l15,71.5L796,281z"/>
		<path style="fill:#C90A00;" d="M860.5,217l53-41l-45.875,68.25L860.5,217z"/>
		<path style="fill:#C20000;" d="M913.5,176l-23,115l-22.875-46.75L913.5,176z"/>
		<path style="fill:#C40010;" d="M890.5,291l-53.5-7l30.625-39.75L890.5,291z"/>
		<path style="fill:#D90702;" d="M837,284l23.5-67l7.125,27.25L837,284z"/>
		<path style="fill:#D01300;" d="M913.5,176l36,14l-11.625,67L913.5,176z"/>
		<path style="fill:#C40000;" d="M949.5,190l6.5,86l-18.125-19L949.5,190z"/>
		<path style="fill:#E60D1E;" d="M956,276l-65.5,15l47.375-34L956,276z"/>
		<path style="fill:#D60000;" d="M890.5,291l23-115l24.375,81L890.5,291z"/>
		<path style="fill:#BD1200;" d="M949.5,190l50.5-14l-27.625,63.75L949.5,190z"/>
		<path style="fill:#C70000;" d="M1000,176v101l-27.625-37.25L1000,176z"/>
		<path style="fill:#D30000;" d="M1000,277l-44-1l16.375-36.25L1000,277z"/>
		<path style="fill:#D20F00;" d="M956,276l-6.5-86l22.875,49.75L956,276z"/>
		<path style="fill:#E20521;" d="M0,284l49.5-13L25,350L0,284z"/>
		<path style="fill:#F11323;" d="M49.5,271L35,410l-10-60L49.5,271z"/>
		<path style="fill:#FC2238;" d="M35,410L0,373l25-23L35,410z"/>
		<path style="fill:#F72925;" d="M0,373v-89l25,66L0,373z"/>
		<path style="fill:#F71219;" d="M49.5,271L96,287l-12.625,39.75L49.5,271z"/>
		<path style="fill:#F72F3F;" d="M96,287l-7,115l-5.625-75.25L96,287z"/>
		<path style="fill:#EE0028;" d="M89,402l-54,8l48.375-83.25L89,402z"/>
		<path style="fill:#F80C32;" d="M35,410l14.5-139l33.875,55.75L35,410z"/>
		<path style="fill:#F41A1F;" d="M96,287l42.5,27l-28,39.75L96,287z"/>
		<path style="fill:#EE0427;" d="M138.5,314l14,108l-42-68.25L138.5,314z"/>
		<path style="fill:#E0101A;" d="M152.5,422L89,402l21.5-48.25L152.5,422z"/>
		<path style="fill:#FF0E26;" d="M89,402l7-115l14.5,66.75L89,402z"/>
		<path style="fill:#D50008;" d="M138.5,314l53.5-20l-33.875,28.5L138.5,314z"/>
		<path style="fill:#E4100F;" d="M192,294v88l-33.875-59.5L192,294z"/>
		<path style="fill:#DB1A14;" d="M192,382l-39.5,40l5.625-99.5L192,382z"/>
		<path style="fill:#F50724;" d="M152.5,422l-14-108l19.625,8.5L152.5,422z"/>
		<path style="fill:#DC0317;" d="M192,294l63.5,34l-19.5,5.5L192,294z"/>
		<path style="fill:#E61527;" d="M255.5,328l-1.5,84l-18-78.5L255.5,328z"/>
		<path style="fill:#E21E1A;" d="M254,412l-62-30l44-48.5L254,412z"/>
		<path style="fill:#F21E2E;" d="M192,382v-88l44,39.5L192,382z"/>
		<path style="fill:#D31817;" d="M255.5,328l56.5-33l-39.125,76L255.5,328z"/>
		<path style="fill:#CD1223;" d="M312,295l-5.5,131l-33.625-55L312,295z"/>
		<path style="fill:#F4192A;" d="M306.5,426L254,412l18.875-41L306.5,426z"/>
		<path style="fill:#D3081C;" d="M254,412l1.5-84l17.375,43L254,412z"/>
		<path style="fill:#F01915;" d="M312,295l48,1l-26,35.75L312,295z"/>
		<path style="fill:#FF2220;" d="M360,296l3.5,132L334,331.75L360,296z"/>
		<path style="fill:#EB0C1F;" d="M363.5,428l-57-2l27.5-94.25L363.5,428z"/>
		<path style="fill:#FF292E;" d="M306.5,426l5.5-131l22,36.75L306.5,426z"/>
		<path style="fill:#D70004;" d="M360,296l55.5-22l-37,53L360,296z"/>
		<path style="fill:#D60E0D;" d="M415.5,274L393,393l-14.5-66L415.5,274z"/>
		<path style="fill:#E31316;" d="M393,393l-29.5,35l15-101L393,393z"/>
		<path style="fill:#D2030E;" d="M363.5,428L360,296l18.5,31L363.5,428z"/>
		<path style="fill:#E20D18;" d="M415.5,274l29.5,54l-27.625,2.5L415.5,274z"/>
		<path style="fill:#DC0005;" d="M445,328l-4,62l-23.625-59.5L445,328z"/>
		<path style="fill:#EE1A20;" d="M441,390l-48,3l24.375-62.5L441,390z"/>
		<path style="fill:#EE1512;" d="M393,393l22.5-119l1.875,56.5L393,393z"/>
		<path style="fill:#D30011;" d="M445,328l50-51l-29.75,51H445z"/>
		<path style="fill:#E21021;" d="M495,277l11.5,116l-41.25-65L495,277z"/>
		<path style="fill:#D4112A;" d="M506.5,393l-65.5-3l24.25-62L506.5,393z"/>
		<path style="fill:#EE1E1F;" d="M441,390l4-62h20.25L441,390z"/>
		<path style="fill:#D00016;" d="M495,277l70,6l-56.75,42.25L495,277z"/>
		<path style="fill:#D00025;" d="M565,283l-23,125l-33.75-82.75L565,283z"/>
		<path style="fill:#D10901;" d="M542,408l-35.5-15l1.75-67.75L542,408z"/>
		<path style="fill:#D61F13;" d="M506.5,393L495,277l13.25,48.25L506.5,393z"/>
		<path style="fill:#D70000;" d="M565,283l41,7l-35.75,32.75L565,283z"/>
		<path style="fill:#EC0D0C;" d="M606,290l2.5,120l-38.25-87.25L606,290z"/>
		<path style="fill:#CD1420;" d="M608.5,410l-66.5-2l28.25-85.25L608.5,410z"/>
		<path style="fill:#ED1911;" d="M542,408l23-125l5.25,39.75L542,408z"/>
		<path style="fill:#DE0C0F;" d="M606,290l43.5-18L613,358.5L606,290z"/>
		<path style="fill:#C71023;" d="M649.5,272l8.5,132l-45-45.5L649.5,272z"/>
		<path style="fill:#D41601;" d="M658,404l-49.5,6l4.5-51.5L658,404z"/>
		<path style="fill:#E90A1B;" d="M608.5,410L606,290l7,68.5L608.5,410z"/>
		<path style="fill:#D5000E;" d="M649.5,272l59.5,25l-41.125,27L649.5,272z"/>
		<path style="fill:#D50F21;" d="M709,297l-18.5,131l-22.625-104L709,297z"/>
		<path style="fill:#C11312;" d="M690.5,428L658,404l9.875-80L690.5,428z"/>
		<path style="fill:#CB0009;" d="M658,404l-8.5-132l18.375,52L658,404z"/>
		<path style="fill:#CB000C;" d="M709,297l44-20l-39.75,72.25L709,297z"/>
		<path style="fill:#C60202;" d="M753,277l-2,148l-37.75-75.75L753,277z"/>
		<path style="fill:#B70507;" d="M751,425l-60.5,3l22.75-78.75L751,425z"/>
		<path style="fill:#B60001;" d="M690.5,428L709,297l4.25,52.25L690.5,428z"/>
		<path style="fill:#B30100;" d="M753,277l43,4l-31.75,92.25L753,277z"/>
		<path style="fill:#DD0B0A;" d="M796,281l11.5,89l-43.25,3.25L796,281z"/>
		<path style="fill:#D40C22;" d="M807.5,370L751,425l13.25-51.75L807.5,370z"/>
		<path style="fill:#C91500;" d="M751,425l2-148l11.25,96.25L751,425z"/>
		<path style="fill:#C00010;" d="M796,281l41,3l-6,55.25L796,281z"/>
		<path style="fill:#BE0002;" d="M837,284l6,109l-12-53.75L837,284z"/>
		<path style="fill:#BB0008;" d="M843,393l-35.5-23l23.5-30.75L843,393z"/>
		<path style="fill:#E50000;" d="M807.5,370L796,281l35,58.25L807.5,370z"/>
		<path style="fill:#B10009;" d="M837,284l53.5,7l-17.25,36L837,284z"/>
		<path style="fill:#C50C00;" d="M890.5,291l-2,116l-15.25-80L890.5,291z"/>
		<path style="fill:#C70912;" d="M888.5,407L843,393l30.25-66L888.5,407z"/>
		<path style="fill:#CB0000;" d="M843,393l-6-109l36.25,43L843,393z"/>
		<path style="fill:#AC060E;" d="M890.5,291l65.5-15l-23.375,49.75L890.5,291z"/>
		<path style="fill:#BC0607;" d="M956,276l3,141l-26.375-91.25L956,276z"/>
		<path style="fill:#DD1D04;" d="M959,417l-70.5-10l44.125-81.25L959,417z"/>
		<path style="fill:#B1000B;" d="M888.5,407l2-116l42.125,34.75L888.5,407z"/>
		<path style="fill:#B30500;" d="M956,276l44,1l-31,65L956,276z"/>
		<path style="fill:#B30000;" d="M1000,277v106l-31-41L1000,277z"/>
		<path style="fill:#BF0008;" d="M1000,383l-41,34l10-75L1000,383z"/>
		<path style="fill:#C80000;" d="M959,417l-3-141l13,66L959,417z"/>
		<path style="fill:#E91234;" d="M0,373l35,37l-10,40L0,373z"/>
		<path style="fill:#F3252F;" d="M35,410l4.5,89L25,450L35,410z"/>
		<path style="fill:#DF0C22;" d="M39.5,499L0,528l25-78L39.5,499z"/>
		<path style="fill:#DF2236;" d="M0,528V373l25,77L0,528z"/>
		<path style="fill:#F50010;" d="M35,410l54-8l-30.25,49.5L35,410z"/>
		<path style="fill:#EF1B2E;" d="M89,402l19.5,118l-49.75-68.5L89,402z"/>
		<path style="fill:#E10135;" d="M108.5,520l-69-21l19.25-47.5L108.5,520z"/>
		<path style="fill:#FB0526;" d="M39.5,499L35,410l23.75,41.5L39.5,499z"/>
		<path style="fill:#FF1A38;" d="M89,402l63.5,20l-44.75-0.5L89,402z"/>
		<path style="fill:#F60A39;" d="M152.5,422l-0.5,70l-44.25-70.5L152.5,422z"/>
		<path style="fill:#ED132E;" d="M152,492l-43.5,28l-0.75-98.5L152,492z"/>
		<path style="fill:#D70723;" d="M108.5,520L89,402l18.75,19.5L108.5,520z"/>
		<path style="fill:#D81729;" d="M152.5,422l39.5-40l-22.375,51.5L152.5,422z"/>
		<path style="fill:#E11427;" d="M192,382l-7.5,102l-14.875-50.5L192,382z"/>
		<path style="fill:#DE000B;" d="M184.5,484l-32.5,8l17.625-58.5L184.5,484z"/>
		<path style="fill:#FD181E;" d="M152,492l0.5-70l17.125,11.5L152,492z"/>
		<path style="fill:#F9271B;" d="M192,382l62,30l-27,11.5L192,382z"/>
		<path style="fill:#D90023;" d="M254,412l-17.5,58l-9.5-46.5L254,412z"/>
		<path style="fill:#F51333;" d="M236.5,470l-52,14l42.5-60.5L236.5,470z"/>
		<path style="fill:#EF082F;" d="M184.5,484l7.5-102l35,41.5L184.5,484z"/>
		<path style="fill:#E50022;" d="M254,412l52.5,14l-40,52L254,412z"/>
		<path style="fill:#F50A1E;" d="M306.5,426l-15,94l-25-42L306.5,426z"/>
		<path style="fill:#D60E26;" d="M291.5,520l-55-50l30,8L291.5,520z"/>
		<path style="fill:#E00D1C;" d="M236.5,470l17.5-58l12.5,66L236.5,470z"/>
		<path style="fill:#D11404;" d="M306.5,426l57,2l-28.875,42.5L306.5,426z"/>
		<path style="fill:#DB0008;" d="M363.5,428L348,482l-13.375-11.5L363.5,428z"/>
		<path style="fill:#C30000;" d="M348,482l-56.5,38l43.125-49.5L348,482z"/>
		<path style="fill:#C2121C;" d="M291.5,520l15-94l28.125,44.5L291.5,520z"/>
		<path style="fill:#C90C15;" d="M363.5,428l29.5-35l-14.125,63L363.5,428z"/>
		<path style="fill:#E80317;" d="M393,393l-2.5,95l-11.625-32L393,393z"/>
		<path style="fill:#D50523;" d="M390.5,488l-42.5-6l30.875-26L390.5,488z"/>
		<path style="fill:#C9051E;" d="M348,482l15.5-54l15.375,28L348,482z"/>
		<path style="fill:#CA000D;" d="M393,393l48-3l-27.75,59.25L393,393z"/>
		<path style="fill:#D9020D;" d="M441,390l7,121l-34.75-61.75L441,390z"/>
		<path style="fill:#CC022B;" d="M448,511l-57.5-23l22.75-38.75L448,511z"/>
		<path style="fill:#DA0004;" d="M390.5,488l2.5-95l20.25,56.25L390.5,488z"/>
		<path style="fill:#F00028;" d="M441,390l65.5,3l-49.25,64.5L441,390z"/>
		<path style="fill:#D51D0C;" d="M506.5,393l-2,103l-47.25-38.5L506.5,393z"/>
		<path style="fill:#CC1B18;" d="M504.5,496L448,511l9.25-53.5L504.5,496z"/>
		<path style="fill:#D1001A;" d="M448,511l-7-121l16.25,67.5L448,511z"/>
		<path style="fill:#E20410;" d="M506.5,393l35.5,15l-9.875,25.25L506.5,393z"/>
		<path style="fill:#DC0B17;" d="M542,408l17.5,71l-27.375-45.75L542,408z"/>
		<path style="fill:#D80811;" d="M559.5,479l-55,17l27.625-62.75L559.5,479z"/>
		<path style="fill:#ED130C;" d="M504.5,496l2-103l25.625,40.25L504.5,496z"/>
		<path style="fill:#D51C1D;" d="M542,408l66.5,2L571,431L542,408z"/>
		<path style="fill:#C90006;" d="M608.5,410l-13,119L571,431L608.5,410z"/>
		<path style="fill:#CB1114;" d="M595.5,529l-36-50l11.5-48L595.5,529z"/>
		<path style="fill:#D50C12;" d="M559.5,479L542,408l29,23L559.5,479z"/>
		<path style="fill:#DA1119;" d="M608.5,410l49.5-6l-15.875,62.5L608.5,410z"/>
		<path style="fill:#DA101B;" d="M658,404l-15,91l-0.875-28.5L658,404z"/>
		<path style="fill:#C70000;" d="M643,495l-47.5,34l46.625-62.5L643,495z"/>
		<path style="fill:#C60000;" d="M595.5,529l13-119l33.625,56.5L595.5,529z"/>
		<path style="fill:#BC1A15;" d="M658,404l32.5,24L678,467L658,404z"/>
		<path style="fill:#DB0D00;" d="M690.5,428l-5,80l-7.5-41L690.5,428z"/>
		<path style="fill:#C3040B;" d="M685.5,508L643,495l35-28L685.5,508z"/>
		<path style="fill:#DB000E;" d="M643,495l15-91l20,63L643,495z"/>
		<path style="fill:#CD191C;" d="M690.5,428l60.5-3l-17.875,41L690.5,428z"/>
		<path style="fill:#DD1A25;" d="M751,425l3,56l-20.875-15L751,425z"/>
		<path style="fill:#D40008;" d="M754,481l-68.5,27l47.625-42L754,481z"/>
		<path style="fill:#D90006;" d="M685.5,508l5-80l42.625,38L685.5,508z"/>
		<path style="fill:#C41209;" d="M751,425l56.5-55l-45.75,66.25L751,425z"/>
		<path style="fill:#CD0600;" d="M807.5,370l-8,111l-37.75-44.75L807.5,370z"/>
		<path style="fill:#C00006;" d="M799.5,481H754l7.75-44.75L799.5,481z"/>
		<path style="fill:#DF1206;" d="M754,481l-3-56l10.75,11.25L754,481z"/>
		<path style="fill:#C60200;" d="M807.5,370l35.5,23l-0.625,66.5L807.5,370z"/>
		<path style="fill:#C00510;" d="M843,393l9.5,91l-10.125-24.5L843,393z"/>
		<path style="fill:#DD1C0F;" d="M852.5,484l-53-3l42.875-21.5L852.5,484z"/>
		<path style="fill:#CC0013;" d="M799.5,481l8-111l34.875,89.5L799.5,481z"/>
		<path style="fill:#AD1002;" d="M843,393l45.5,14l-6.25,23.25L843,393z"/>
		<path style="fill:#BB000E;" d="M888.5,407l8.5,88l-14.75-64.75L888.5,407z"/>
		<path style="fill:#DE1121;" d="M897,495l-44.5-11l29.75-53.75L897,495z"/>
		<path style="fill:#C20603;" d="M852.5,484l-9.5-91l39.25,37.25L852.5,484z"/>
		<path style="fill:#DD0A04;" d="M888.5,407l70.5,10l-46.375,56.75L888.5,407z"/>
		<path style="fill:#C10E00;" d="M959,417l4,72l-50.375-15.25L959,417z"/>
		<path style="fill:#C4001B;" d="M963,489l-66,6l15.625-21.25L963,489z"/>
		<path style="fill:#C30600;" d="M897,495l-8.5-88l24.125,66.75L897,495z"/>
		<path style="fill:#B50700;" d="M959,417l41-34l-24.75,71L959,417z"/>
		<path style="fill:#AF0009;" d="M1000,383v117l-24.75-46L1000,383z"/>
		<path style="fill:#B60800;" d="M1000,500l-37-11l12.25-35L1000,500z"/>
		<path style="fill:#AA0005;" d="M963,489l-4-72l16.25,37L963,489z"/>
		<path style="fill:#E1142E;" d="M0,528l39.5-29L25,550L0,528z"/>
		<path style="fill:#EB0C26;" d="M39.5,499l13,72L25,550L39.5,499z"/>
		<path style="fill:#F30632;" d="M52.5,571L0,586l25-36L52.5,571z"/>
		<path style="fill:#E2000E;" d="M0,586v-58l25,22L0,586z"/>
		<path style="fill:#E20012;" d="M39.5,499l69,21l-45.125,39.75L39.5,499z"/>
		<path style="fill:#F71C24;" d="M108.5,520l-13,60l-32.125-20.25L108.5,520z"/>
		<path style="fill:#E91E28;" d="M95.5,580l-43-9l10.875-11.25L95.5,580z"/>
		<path style="fill:#E81423;" d="M52.5,571l-13-72l23.875,60.75L52.5,571z"/>
		<path style="fill:#E5191D;" d="M108.5,520l43.5-28l-16.875,94L108.5,520z"/>
		<path style="fill:#F30810;" d="M152,492l5.5,128l-22.375-34L152,492z"/>
		<path style="fill:#EB0A28;" d="M157.5,620l-62-40l39.625,6L157.5,620z"/>
		<path style="fill:#DF1226;" d="M95.5,580l13-60l26.625,66L95.5,580z"/>
		<path style="fill:#F00C31;" d="M152,492l32.5-8v90L152,492z"/>
		<path style="fill:#F00A24;" d="M184.5,484l21,119l-21-29V484z"/>
		<path style="fill:#EB0929;" d="M205.5,603l-48,17l27-46L205.5,603z"/>
		<path style="fill:#D6002A;" d="M157.5,620L152,492l32.5,82L157.5,620z"/>
		<path style="fill:#E21A2B;" d="M184.5,484l52-14l-14.875,62L184.5,484z"/>
		<path style="fill:#DB0B25;" d="M236.5,470l18,129l-32.875-67L236.5,470z"/>
		<path style="fill:#DC0919;" d="M254.5,599l-49,4l16.125-71L254.5,599z"/>
		<path style="fill:#D60913;" d="M205.5,603l-21-119l37.125,48L205.5,603z"/>
		<path style="fill:#DE212F;" d="M236.5,470l55,50l-14.875,15.5L236.5,470z"/>
		<path style="fill:#ED0028;" d="M291.5,520l12,61l-26.875-45.5L291.5,520z"/>
		<path style="fill:#CF1C2F;" d="M303.5,581l-49,18l22.125-63.5L303.5,581z"/>
		<path style="fill:#E40B2D;" d="M254.5,599l-18-129l40.125,65.5L254.5,599z"/>
		<path style="fill:#E40019;" d="M291.5,520l56.5-38l-27.125,50L291.5,520z"/>
		<path style="fill:#E40810;" d="M348,482l-12.5,137l-14.625-87L348,482z"/>
		<path style="fill:#EF022A;" d="M335.5,619l-32-38l17.375-49L335.5,619z"/>
		<path style="fill:#D4042A;" d="M303.5,581l-12-61l29.375,12L303.5,581z"/>
		<path style="fill:#D0000E;" d="M348,482l42.5,6L377,566.5L348,482z"/>
		<path style="fill:#E40D27;" d="M390.5,488L413,623l-36-56.5L390.5,488z"/>
		<path style="fill:#D10630;" d="M413,623l-77.5-4l41.5-52.5L413,623z"/>
		<path style="fill:#D0000F;" d="M335.5,619L348,482l29,84.5L335.5,619z"/>
		<path style="fill:#E12028;" d="M390.5,488l57.5,23l-31.375,25L390.5,488z"/>
		<path style="fill:#CB0B25;" d="M448,511l7.5,90l-38.875-65L448,511z"/>
		<path style="fill:#E2021C;" d="M455.5,601L413,623l3.625-87L455.5,601z"/>
		<path style="fill:#D60600;" d="M413,623l-22.5-135l26.125,48L413,623z"/>
		<path style="fill:#BE070C;" d="M448,511l56.5-15L469,582.75L448,511z"/>
		<path style="fill:#BD0008;" d="M504.5,496l-10,92l-25.5-5.25L504.5,496z"/>
		<path style="fill:#D90011;" d="M494.5,588l-39,13l13.5-18.25L494.5,588z"/>
		<path style="fill:#DE0212;" d="M455.5,601l-7.5-90l21,71.75L455.5,601z"/>
		<path style="fill:#E40016;" d="M504.5,496l55-17l-22.375,77L504.5,496z"/>
		<path style="fill:#D4080F;" d="M559.5,479L544,592l-6.875-36L559.5,479z"/>
		<path style="fill:#B60712;" d="M544,592l-49.5-4l42.625-32L544,592z"/>
		<path style="fill:#D50215;" d="M494.5,588l10-92l32.625,60L494.5,588z"/>
		<path style="fill:#CC182B;" d="M559.5,479l36,50l-14.625,20.75L559.5,479z"/>
		<path style="fill:#DA1207;" d="M595.5,529l8,57l-22.625-36.25L595.5,529z"/>
		<path style="fill:#DC0412;" d="M603.5,586l-59.5,6l36.875-42.25L603.5,586z"/>
		<path style="fill:#CC1319;" d="M544,592l15.5-113l21.375,70.75L544,592z"/>
		<path style="fill:#E10024;" d="M595.5,529l47.5-34l-9.125,76.25L595.5,529z"/>
		<path style="fill:#E00A24;" d="M643,495l12.5,82l-21.625-5.75L643,495z"/>
		<path style="fill:#CC0503;" d="M655.5,577l-52,9l30.375-14.75L655.5,577z"/>
		<path style="fill:#CC1C27;" d="M603.5,586l-8-57l38.375,42.25L603.5,586z"/>
		<path style="fill:#DE0804;" d="M643,495l42.5,13l-21.75,33.75L643,495z"/>
		<path style="fill:#CD1E27;" d="M685.5,508l14.5,93l-36.25-59.25L685.5,508z"/>
		<path style="fill:#BF0019;" d="M700,601l-44.5-24l8.25-35.25L700,601z"/>
		<path style="fill:#D91F1C;" d="M655.5,577L643,495l20.75,46.75L655.5,577z"/>
		<path style="fill:#BF0713;" d="M685.5,508l68.5-27l-17.625,67L685.5,508z"/>
		<path style="fill:#A90000;" d="M754,481l-2.5,122l-15.125-55L754,481z"/>
		<path style="fill:#BB0014;" d="M751.5,603l-51.5-2l36.375-53L751.5,603z"/>
		<path style="fill:#CA1919;" d="M700,601l-14.5-93l50.875,40L700,601z"/>
		<path style="fill:#AB0007;" d="M754,481h45.5L787,525.25L754,481z"/>
		<path style="fill:#AB000C;" d="M799.5,481l9,137L787,525.25L799.5,481z"/>
		<path style="fill:#C2021A;" d="M808.5,618l-57-15l35.5-77.75L808.5,618z"/>
		<path style="fill:#C70B00;" d="M751.5,603l2.5-122l33,44.25L751.5,603z"/>
		<path style="fill:#BD0722;" d="M799.5,481l53,3l-41.625,59.25L799.5,481z"/>
		<path style="fill:#D10923;" d="M852.5,484l2.5,106l-44.125-46.75L852.5,484z"/>
		<path style="fill:#AE0006;" d="M855,590l-46.5,28l2.375-74.75L855,590z"/>
		<path style="fill:#CD0011;" d="M808.5,618l-9-137l11.375,62.25L808.5,618z"/>
		<path style="fill:#BE0006;" d="M852.5,484l44.5,11l-27.375,61L852.5,484z"/>
		<path style="fill:#C20006;" d="M897,495l-8,125l-19.375-64L897,495z"/>
		<path style="fill:#A40000;" d="M889,620l-34-30l14.625-34L889,620z"/>
		<path style="fill:#D41601;" d="M855,590l-2.5-106l17.125,72L855,590z"/>
		<path style="fill:#C00D10;" d="M897,495l66-6l-28.75,65.75L897,495z"/>
		<path style="fill:#BF0000;" d="M963,489l-5,99l-23.75-33.25L963,489z"/>
		<path style="fill:#C11D17;" d="M958,588l-69,32l45.25-65.25L958,588z"/>
		<path style="fill:#A60004;" d="M889,620l8-125l37.25,59.75L889,620z"/>
		<path style="fill:#CB0000;" d="M963,489l37,11l-27.75,47.5L963,489z"/>
		<path style="fill:#BB1106;" d="M1000,500v73l-27.75-25.5L1000,500z"/>
		<path style="fill:#A70000;" d="M1000,573l-42,15l14.25-40.5L1000,573z"/>
		<path style="fill:#C10208;" d="M958,588l5-99l9.25,58.5L958,588z"/>
		<path style="fill:#D4001A;" d="M0,586l52.5-15L25,650L0,586z"/>
		<path style="fill:#CE0725;" d="M52.5,571L47,693l-22-43L52.5,571z"/>
		<path style="fill:#DA000F;" d="M47,693L0,708l25-58L47,693z"/>
		<path style="fill:#E9142D;" d="M0,708V586l25,64L0,708z"/>
		<path style="fill:#E61621;" d="M52.5,571l43,9l-35.375,66.75L52.5,571z"/>
		<path style="fill:#F41629;" d="M95.5,580l7.5,99l-42.875-32.25L95.5,580z"/>
		<path style="fill:#E20D27;" d="M103,679l-56,14l13.125-46.25L103,679z"/>
		<path style="fill:#CC000A;" d="M47,693l5.5-122l7.625,75.75L47,693z"/>
		<path style="fill:#DC0E0E;" d="M95.5,580l62,40l-29.625,42L95.5,580z"/>
		<path style="fill:#DC1D3A;" d="M157.5,620L143,682l-15.125-20L157.5,620z"/>
		<path style="fill:#D8000A;" d="M143,682l-40-3l24.875-17L143,682z"/>
		<path style="fill:#D20E30;" d="M103,679l-7.5-99l32.375,82L103,679z"/>
		<path style="fill:#DD0004;" d="M157.5,620l48-17l-32.625,27L157.5,620z"/>
		<path style="fill:#F11C2F;" d="M205.5,603l8,107l-40.625-80L205.5,603z"/>
		<path style="fill:#CE1913;" d="M213.5,710L143,682l29.875-52L213.5,710z"/>
		<path style="fill:#E20017;" d="M143,682l14.5-62l15.375,10L143,682z"/>
		<path style="fill:#DF0222;" d="M205.5,603l49-4l-12.625,76.75L205.5,603z"/>
		<path style="fill:#D30014;" d="M254.5,599l-4,74l-8.625,2.75L254.5,599z"/>
		<path style="fill:#CF0E26;" d="M250.5,673l-37,37l28.375-34.25L250.5,673z"/>
		<path style="fill:#D90208;" d="M213.5,710l-8-107l36.375,72.75L213.5,710z"/>
		<path style="fill:#D10809;" d="M254.5,599l49-18l-21.875,99.75L254.5,599z"/>
		<path style="fill:#F52715;" d="M303.5,581L300,704l-18.375-23.25L303.5,581z"/>
		<path style="fill:#DC001F;" d="M300,704l-49.5-31l31.125,7.75L300,704z"/>
		<path style="fill:#DB0304;" d="M250.5,673l4-74l27.125,81.75L250.5,673z"/>
		<path style="fill:#CB0400;" d="M303.5,581l32,38l-20.125,40.25L303.5,581z"/>
		<path style="fill:#E00D2A;" d="M335.5,619l26,94l-46.125-53.75L335.5,619z"/>
		<path style="fill:#CD0523;" d="M361.5,713l-61.5-9l15.375-44.75L361.5,713z"/>
		<path style="fill:#DC1626;" d="M300,704l3.5-123l11.875,78.25L300,704z"/>
		<path style="fill:#C71512;" d="M335.5,619l77.5,4l-36.625,60.75L335.5,619z"/>
		<path style="fill:#D61124;" d="M413,623l-26.5,84l-10.125-23.25L413,623z"/>
		<path style="fill:#C8070B;" d="M386.5,707l-25,6l14.875-29.25L386.5,707z"/>
		<path style="fill:#CC0711;" d="M361.5,713l-26-94l40.875,64.75L361.5,713z"/>
		<path style="fill:#CE000F;" d="M413,623l42.5-22l-15.25,24.75L413,623z"/>
		<path style="fill:#CD031F;" d="M455.5,601L437,723l3.25-97.25L455.5,601z"/>
		<path style="fill:#C41C19;" d="M437,723l-50.5-16l53.75-81.25L437,723z"/>
		<path style="fill:#E30B23;" d="M386.5,707l26.5-84l27.25,2.75L386.5,707z"/>
		<path style="fill:#E01E17;" d="M455.5,601l39-13l-31.625,79.25L455.5,601z"/>
		<path style="fill:#DA000A;" d="M494.5,588l2,116l-33.625-36.75L494.5,588z"/>
		<path style="fill:#B10017;" d="M496.5,704L437,723l25.875-55.75L496.5,704z"/>
		<path style="fill:#E0051A;" d="M437,723l18.5-122l7.375,66.25L437,723z"/>
		<path style="fill:#D71728;" d="M494.5,588l49.5,4l-7.375,57L494.5,588z"/>
		<path style="fill:#C1001A;" d="M544,592l19.5,95l-26.875-38L544,592z"/>
		<path style="fill:#C31415;" d="M563.5,687l-67,17l40.125-55L563.5,687z"/>
		<path style="fill:#CC0400;" d="M496.5,704l-2-116l42.125,61L496.5,704z"/>
		<path style="fill:#D8061F;" d="M544,592l59.5-6l-25,40L544,592z"/>
		<path style="fill:#D82110;" d="M603.5,586L590,678l-11.5-52L603.5,586z"/>
		<path style="fill:#DE101D;" d="M590,678l-26.5,9l15-61L590,678z"/>
		<path style="fill:#B9000C;" d="M563.5,687L544,592l34.5,34L563.5,687z"/>
		<path style="fill:#BF1400;" d="M603.5,586l52-9l-45.125,100.5L603.5,586z"/>
		<path style="fill:#D3180F;" d="M655.5,577l-17,138l-28.125-37.5L655.5,577z"/>
		<path style="fill:#BA060B;" d="M638.5,715L590,678l20.375-0.5L638.5,715z"/>
		<path style="fill:#CA1318;" d="M590,678l13.5-92l6.875,91.5L590,678z"/>
		<path style="fill:#B00008;" d="M655.5,577l44.5,24l-33.625,67.25L655.5,577z"/>
		<path style="fill:#D9071A;" d="M700,601l-8.5,77l-25.125-9.75L700,601z"/>
		<path style="fill:#C61704;" d="M691.5,678l-53,37l27.875-46.75L691.5,678z"/>
		<path style="fill:#CA1313;" d="M638.5,715l17-138l10.875,91.25L638.5,715z"/>
		<path style="fill:#C60D16;" d="M700,601l51.5,2l-14,26.25L700,601z"/>
		<path style="fill:#C6120A;" d="M751.5,603l-3,127l-11-100.75L751.5,603z"/>
		<path style="fill:#B80008;" d="M748.5,730l-57-52l46-48.75L748.5,730z"/>
		<path style="fill:#B20C00;" d="M691.5,678l8.5-77l37.5,28.25L691.5,678z"/>
		<path style="fill:#C31E09;" d="M751.5,603l57,15l-37.125,44.75L751.5,603z"/>
		<path style="fill:#BD0005;" d="M808.5,618l-16,69l-21.125-24.25L808.5,618z"/>
		<path style="fill:#B40016;" d="M792.5,687l-44,43l22.875-67.25L792.5,687z"/>
		<path style="fill:#BE1722;" d="M748.5,730l3-127l19.875,59.75L748.5,730z"/>
		<path style="fill:#AE0B0E;" d="M808.5,618l46.5-28l-32.875,83.5L808.5,618z"/>
		<path style="fill:#B20800;" d="M855,590l-0.5,124l-32.375-40.5L855,590z"/>
		<path style="fill:#D51524;" d="M854.5,714l-62-27l29.625-13.5L854.5,714z"/>
		<path style="fill:#B80000;" d="M792.5,687l16-69l13.625,55.5L792.5,687z"/>
		<path style="fill:#BF0B00;" d="M855,590l34,30l-28.25,17.5L855,590z"/>
		<path style="fill:#BE000F;" d="M889,620l-3.5,70l-24.75-52.5L889,620z"/>
		<path style="fill:#C00700;" d="M885.5,690l-31,24l6.25-76.5L885.5,690z"/>
		<path style="fill:#B5000F;" d="M854.5,714l0.5-124l5.75,47.5L854.5,714z"/>
		<path style="fill:#B60403;" d="M889,620l69-32l-48.75,77L889,620z"/>
		<path style="fill:#A60300;" d="M958,588l-9.5,127l-39.25-50L958,588z"/>
		<path style="fill:#AD0C00;" d="M948.5,715l-63-25l23.75-25L948.5,715z"/>
		<path style="fill:#BC1510;" d="M885.5,690l3.5-70l20.25,45L885.5,690z"/>
		<path style="fill:#B80000;" d="M958,588l42-15l-13,79.5L958,588z"/>
		<path style="fill:#BC0215;" d="M1000,573v156l-13-76.5L1000,573z"/>
		<path style="fill:#C90903;" d="M1000,729l-51.5-14l38.5-62.5L1000,729z"/>
		<path style="fill:#A80000;" d="M948.5,715l9.5-127l29,64.5L948.5,715z"/>
		<path style="fill:#D2012C;" d="M0,708l47-15l-22,57L0,708z"/>
		<path style="fill:#E7182B;" d="M47,693l-3,77l-19-20L47,693z"/>
		<path style="fill:#F30737;" d="M44,770L0,808l25-58L44,770z"/>
		<path style="fill:#CD001F;" d="M0,808V708l25,42L0,808z"/>
		<path style="fill:#D80015;" d="M47,693l56-14l-16.25,67.25L47,693z"/>
		<path style="fill:#DD0012;" d="M103,679l1,139l-17.25-71.75L103,679z"/>
		<path style="fill:#D30016;" d="M104,818l-60-48l42.75-23.75L104,818z"/>
		<path style="fill:#E3121C;" d="M44,770l3-77l39.75,53.25L44,770z"/>
		<path style="fill:#DF1226;" d="M103,679l40,3l-15.75,40.75L103,679z"/>
		<path style="fill:#DD052A;" d="M143,682l17.5,94l-33.25-53.25L143,682z"/>
		<path style="fill:#D9001D;" d="M160.5,776L104,818l23.25-95.25L160.5,776z"/>
		<path style="fill:#DE0426;" d="M104,818l-1-139l24.25,43.75L104,818z"/>
		<path style="fill:#D50125;" d="M143,682l70.5,28l-40.25,66.5L143,682z"/>
		<path style="fill:#E90428;" d="M213.5,710l-0.5,97l-39.75-30.5L213.5,710z"/>
		<path style="fill:#E11324;" d="M213,807l-52.5-31l12.75,0.5L213,807z"/>
		<path style="fill:#DA0A30;" d="M160.5,776L143,682l30.25,94.5L160.5,776z"/>
		<path style="fill:#F20325;" d="M213.5,710l37-37l-7.125,98.5L213.5,710z"/>
		<path style="fill:#DC000B;" d="M250.5,673L245,791l-1.625-19.5L250.5,673z"/>
		<path style="fill:#D8061A;" d="M245,791l-32,16l30.375-35.5L245,791z"/>
		<path style="fill:#C7102A;" d="M213,807l0.5-97l29.875,61.5L213,807z"/>
		<path style="fill:#D70714;" d="M250.5,673l49.5,31l-19.375,68.25L250.5,673z"/>
		<path style="fill:#CC0113;" d="M300,704l-13.5,124l-5.875-55.75L300,704z"/>
		<path style="fill:#D9001B;" d="M286.5,828L245,791l35.625-18.75L286.5,828z"/>
		<path style="fill:#D80623;" d="M245,791l5.5-118l30.125,99.25L245,791z"/>
		<path style="fill:#BE0003;" d="M300,704l61.5,9L335,738L300,704z"/>
		<path style="fill:#D20C0A;" d="M361.5,713l-9,86L335,738L361.5,713z"/>
		<path style="fill:#DA161B;" d="M352.5,799l-66,29l48.5-90L352.5,799z"/>
		<path style="fill:#D9000C;" d="M286.5,828L300,704l35,34L286.5,828z"/>
		<path style="fill:#D40822;" d="M361.5,713l25-6l-20.125,24.25L361.5,713z"/>
		<path style="fill:#D90428;" d="M386.5,707l24.5,97l-44.625-72.75L386.5,707z"/>
		<path style="fill:#CA000B;" d="M411,804l-58.5-5l13.875-67.75L411,804z"/>
		<path style="fill:#DA071B;" d="M352.5,799l9-86l4.875,18.25L352.5,799z"/>
		<path style="fill:#D01003;" d="M386.5,707l50.5,16l-4.375,20.75L386.5,707z"/>
		<path style="fill:#C4192B;" d="M437,723l7.5,63l-11.875-42.25L437,723z"/>
		<path style="fill:#BC0623;" d="M444.5,786L411,804l21.625-60.25L444.5,786z"/>
		<path style="fill:#C10A10;" d="M411,804l-24.5-97l46.125,36.75L411,804z"/>
		<path style="fill:#B20F11;" d="M437,723l59.5-19l-19.75,39.75L437,723z"/>
		<path style="fill:#C50000;" d="M496.5,704l19,77l-38.75-37.25L496.5,704z"/>
		<path style="fill:#DC121D;" d="M515.5,781l-71,5l32.25-42.25L515.5,781z"/>
		<path style="fill:#D7050E;" d="M444.5,786l-7.5-63l39.75,20.75L444.5,786z"/>
		<path style="fill:#DE2021;" d="M496.5,704l67-17l-29.875,83L496.5,704z"/>
		<path style="fill:#C70010;" d="M563.5,687L544,797l-10.375-27L563.5,687z"/>
		<path style="fill:#BF1524;" d="M544,797l-28.5-16l18.125-11L544,797z"/>
		<path style="fill:#AE0017;" d="M515.5,781l-19-77l37.125,66L515.5,781z"/>
		<path style="fill:#B01000;" d="M563.5,687l26.5-9l3.875,48.75L563.5,687z"/>
		<path style="fill:#C90528;" d="M590,678l2,129l1.875-80.25L590,678z"/>
		<path style="fill:#D1120F;" d="M592,807l-48-10l49.875-70.25L592,807z"/>
		<path style="fill:#B50506;" d="M544,797l19.5-110l30.375,39.75L544,797z"/>
		<path style="fill:#CB1120;" d="M590,678l48.5,37l-18,16.5L590,678z"/>
		<path style="fill:#BA000C;" d="M638.5,715l4.5,103l-22.5-86.5L638.5,715z"/>
		<path style="fill:#C70506;" d="M643,818l-51-11l28.5-75.5L643,818z"/>
		<path style="fill:#BC021B;" d="M592,807l-2-129l30.5,53.5L592,807z"/>
		<path style="fill:#B20010;" d="M638.5,715l53-37l-7.875,75.75L638.5,715z"/>
		<path style="fill:#B60D00;" d="M691.5,678l4.5,125l-12.375-49.25L691.5,678z"/>
		<path style="fill:#A30006;" d="M696,803l-53,15l40.625-64.25L696,803z"/>
		<path style="fill:#B20100;" d="M643,818l-4.5-103l45.125,38.75L643,818z"/>
		<path style="fill:#BD0800;" d="M691.5,678l57,52l-25.625,22.5L691.5,678z"/>
		<path style="fill:#B20E0C;" d="M748.5,730l17,39l-42.625-16.5L748.5,730z"/>
		<path style="fill:#C91507;" d="M765.5,769L696,803l26.875-50.5L765.5,769z"/>
		<path style="fill:#A80000;" d="M696,803l-4.5-125l31.375,74.5L696,803z"/>
		<path style="fill:#AF0000;" d="M748.5,730l44-43l-31.875,41.5L748.5,730z"/>
		<path style="fill:#9E000E;" d="M792.5,687L788,817l-27.375-88.5L792.5,687z"/>
		<path style="fill:#BA0000;" d="M788,817l-22.5-48l-4.875-40.5L788,817z"/>
		<path style="fill:#AA000C;" d="M765.5,769l-17-39l12.125-1.5L765.5,769z"/>
		<path style="fill:#AB0000;" d="M792.5,687l62,27l-23.375,35.75L792.5,687z"/>
		<path style="fill:#AF0011;" d="M854.5,714l-14,111l-9.375-75.25L854.5,714z"/>
		<path style="fill:#AC050E;" d="M840.5,825l-52.5-8l43.125-67.25L840.5,825z"/>
		<path style="fill:#B60001;" d="M788,817l4.5-130l38.625,62.75L788,817z"/>
		<path style="fill:#B1000C;" d="M854.5,714l31-24l-15.875,65.5L854.5,714z"/>
		<path style="fill:#A60E00;" d="M885.5,690l6,141l-21.875-75.5L885.5,690z"/>
		<path style="fill:#A81108;" d="M891.5,831l-51-6l29.125-69.5L891.5,831z"/>
		<path style="fill:#A80000;" d="M840.5,825l14-111l15.125,41.5L840.5,825z"/>
		<path style="fill:#B80A1D;" d="M885.5,690l63,25l-13.625,52.5L885.5,690z"/>
		<path style="fill:#A70011;" d="M948.5,715l6.5,64l-20.125-11.5L948.5,715z"/>
		<path style="fill:#AE140F;" d="M955,779l-63.5,52l43.375-63.5L955,779z"/>
		<path style="fill:#A30C08;" d="M891.5,831l-6-141l49.375,77.5L891.5,831z"/>
		<path style="fill:#AE0000;" d="M948.5,715l51.5,14l-30.375,50.5L948.5,715z"/>
		<path style="fill:#B20000;" d="M1000,729v85l-30.375-34.5L1000,729z"/>
		<path style="fill:#9A1100;" d="M1000,814l-45-35l14.625,0.5L1000,814z"/>
		<path style="fill:#A90000;" d="M955,779l-6.5-64l21.125,64.5L955,779z"/>
		<path style="fill:#E40625;" d="M0,808l44-38l-19,80L0,808z"/>
		<path style="fill:#CE001B;" d="M44,770l4.5,99L25,850L44,770z"/>
		<path style="fill:#E00F2B;" d="M48.5,869L0,901l25-51L48.5,869z"/>
		<path style="fill:#E40A15;" d="M0,901v-93l25,42L0,901z"/>
		<path style="fill:#E10417;" d="M44,770l60,48l-21.5,2.5L44,770z"/>
		<path style="fill:#E00A0B;" d="M104,818l-16.5,88l-5-85.5L104,818z"/>
		<path style="fill:#D10008;" d="M87.5,906l-39-37l34-48.5L87.5,906z"/>
		<path style="fill:#E61E36;" d="M48.5,869L44,770l38.5,50.5L48.5,869z"/>
		<path style="fill:#DD150A;" d="M104,818l56.5-42L140,848.5L104,818z"/>
		<path style="fill:#F10421;" d="M160.5,776l-9,126L140,848.5L160.5,776z"/>
		<path style="fill:#E81232;" d="M151.5,902l-64,4l52.5-57.5L151.5,902z"/>
		<path style="fill:#D70F23;" d="M87.5,906l16.5-88l36,30.5L87.5,906z"/>
		<path style="fill:#E3002C;" d="M160.5,776l52.5,31l-48.875,27L160.5,776z"/>
		<path style="fill:#CD0026;" d="M213,807l-20,119l-28.875-92L213,807z"/>
		<path style="fill:#C90C25;" d="M193,926l-41.5-24l12.625-68L193,926z"/>
		<path style="fill:#EE1335;" d="M151.5,902l9-126l3.625,58L151.5,902z"/>
		<path style="fill:#CF1F33;" d="M213,807l32-16l-5.75,47.75L213,807z"/>
		<path style="fill:#CE0F2C;" d="M245,791l-2.5,99l-3.25-51.25L245,791z"/>
		<path style="fill:#D01A1A;" d="M242.5,890L193,926l46.25-87.25L242.5,890z"/>
		<path style="fill:#CE0011;" d="M193,926l20-119l26.25,31.75L193,926z"/>
		<path style="fill:#C51720;" d="M245,791l41.5,37l-11.75-5.25L245,791z"/>
		<path style="fill:#BE0000;" d="M286.5,828l28,96l-39.75-101.25L286.5,828z"/>
		<path style="fill:#C60522;" d="M314.5,924l-72-34l32.25-67.25L314.5,924z"/>
		<path style="fill:#D50D13;" d="M242.5,890l2.5-99l29.75,31.75L242.5,890z"/>
		<path style="fill:#C60818;" d="M286.5,828l66-29l-20.875,35L286.5,828z"/>
		<path style="fill:#D50018;" d="M352.5,799l-7.5,80l-13.375-45L352.5,799z"/>
		<path style="fill:#BC0206;" d="M345,879l-30.5,45l17.125-90L345,879z"/>
		<path style="fill:#C0001F;" d="M314.5,924l-28-96l45.125,6L314.5,924z"/>
		<path style="fill:#D1001A;" d="M352.5,799l58.5,5l-21.875,27.75L352.5,799z"/>
		<path style="fill:#D00017;" d="M411,804l1,81l-22.875-53.25L411,804z"/>
		<path style="fill:#BE001A;" d="M412,885l-67-6l44.125-47.25L412,885z"/>
		<path style="fill:#B60110;" d="M345,879l7.5-80l36.625,32.75L345,879z"/>
		<path style="fill:#C20001;" d="M411,804l33.5-18l-14.25,76L411,804z"/>
		<path style="fill:#B10500;" d="M444.5,786l7,131l-21.25-55L444.5,786z"/>
		<path style="fill:#C90A12;" d="M451.5,917L412,885l18.25-23L451.5,917z"/>
		<path style="fill:#D31D27;" d="M412,885l-1-81l19.25,58L412,885z"/>
		<path style="fill:#B4100E;" d="M444.5,786l71-5l-26.375,58.5L444.5,786z"/>
		<path style="fill:#C30012;" d="M515.5,781L509,917l-19.875-77.5L515.5,781z"/>
		<path style="fill:#BA0015;" d="M509,917h-57.5l37.625-77.5L509,917z"/>
		<path style="fill:#BA1709;" d="M451.5,917l-7-131l44.625,53.5L451.5,917z"/>
		<path style="fill:#BB050B;" d="M515.5,781l28.5,16l-2.625,60.25L515.5,781z"/>
		<path style="fill:#D50C28;" d="M544,797l9.5,127l-12.125-66.75L544,797z"/>
		<path style="fill:#B60000;" d="M553.5,924l-44.5-7l32.375-59.75L553.5,924z"/>
		<path style="fill:#AB0800;" d="M509,917l6.5-136l25.875,76.25L509,917z"/>
		<path style="fill:#C10008;" d="M544,797l48,10l-18.5,37.25L544,797z"/>
		<path style="fill:#B00808;" d="M592,807l6.5,74l-25-36.75L592,807z"/>
		<path style="fill:#B2070C;" d="M598.5,881l-45,43l20-79.75L598.5,881z"/>
		<path style="fill:#C10A06;" d="M553.5,924L544,797l29.5,47.25L553.5,924z"/>
		<path style="fill:#AD0E10;" d="M592,807l51,11l-19.5,59.75L592,807z"/>
		<path style="fill:#B1170E;" d="M643,818l0.5,68l-20-8.25L643,818z"/>
		<path style="fill:#C3000B;" d="M643.5,886l-45-5l25-3.25L643.5,886z"/>
		<path style="fill:#BD0623;" d="M598.5,881l-6.5-74l31.5,70.75L598.5,881z"/>
		<path style="fill:#A30700;" d="M643,818l53-15l-32.75,21.5L643,818z"/>
		<path style="fill:#A20303;" d="M696,803l7,82l-39.75-60.5L696,803z"/>
		<path style="fill:#AE0009;" d="M703,885l-59.5,1l19.75-61.5L703,885z"/>
		<path style="fill:#C30024;" d="M643.5,886l-0.5-68l20.25,6.5L643.5,886z"/>
		<path style="fill:#A50000;" d="M696,803l69.5-34l-51,56.75L696,803z"/>
		<path style="fill:#B90200;" d="M765.5,769L745,913l-30.5-87.25L765.5,769z"/>
		<path style="fill:#CB0012;" d="M745,913l-42-28l11.5-59.25L745,913z"/>
		<path style="fill:#B00C0C;" d="M703,885l-7-82l18.5,22.75L703,885z"/>
		<path style="fill:#B00600;" d="M765.5,769l22.5,48l0.375,55.25L765.5,769z"/>
		<path style="fill:#B60000;" d="M788,817l27,97l-26.625-41.75L788,817z"/>
		<path style="fill:#CC1801;" d="M815,914l-70-1l43.375-40.75L815,914z"/>
		<path style="fill:#CC1500;" d="M745,913l20.5-144l22.875,103.25L745,913z"/>
		<path style="fill:#BC0200;" d="M788,817l52.5,8L828,885.25L788,817z"/>
		<path style="fill:#970004;" d="M840.5,825l9.5,100l-22-39.75L840.5,825z"/>
		<path style="fill:#B3051E;" d="M850,925l-35-11l13-28.75L850,925z"/>
		<path style="fill:#A81600;" d="M815,914l-27-97l40,68.25L815,914z"/>
		<path style="fill:#930000;" d="M840.5,825l51,6l-31.875-5.75L840.5,825z"/>
		<path style="fill:#A70000;" d="M891.5,831l4,58l-35.875-63.75L891.5,831z"/>
		<path style="fill:#A40F00;" d="M895.5,889L850,925l9.625-99.75L895.5,889z"/>
		<path style="fill:#B30000;" d="M850,925l-9.5-100l19.125,0.25L850,925z"/>
		<path style="fill:#B41003;" d="M891.5,831l63.5-52l-25.125,69.75L891.5,831z"/>
		<path style="fill:#B8140A;" d="M955,779l-4,128l-21.125-58.25L955,779z"/>
		<path style="fill:#A0000C;" d="M951,907l-55.5-18l34.375-40.25L951,907z"/>
		<path style="fill:#BE0007;" d="M895.5,889l-4-58l38.375,17.75L895.5,889z"/>
		<path style="fill:#BA1900;" d="M955,779l45,35l-13.75,55.75L955,779z"/>
		<path style="fill:#940000;" d="M1000,814v76l-13.75-20.25L1000,814z"/>
		<path style="fill:#A60000;" d="M1000,890l-49,17l35.25-37.25L1000,890z"/>
		<path style="fill:#950300;" d="M951,907l4-128l31.25,90.75L951,907z"/>
		<path style="fill:#E7002A;" d="M0,901l48.5-32L25,950L0,901z"/>
		<path style="fill:#EC0013;" d="M48.5,869L63,1000l-38-50L48.5,869z"/>
		<path style="fill:#D90121;" d="M63,1000H0l25-50L63,1000z"/>
		<path style="fill:#E71113;" d="M0,1000v-99l25,49L0,1000z"/>
		<path style="fill:#F31819;" d="M48.5,869l39,37l-16.625,62.25L48.5,869z"/>
		<path style="fill:#CD020B;" d="M87.5,906l38.5,94l-55.125-31.75L87.5,906z"/>
		<path style="fill:#BE0A06;" d="M126,1000H63l7.875-31.75L126,1000z"/>
		<path style="fill:#DE0017;" d="M63,1000L48.5,869l22.375,99.25L63,1000z"/>
		<path style="fill:#C9001E;" d="M87.5,906l64-4l-12.375,38.5L87.5,906z"/>
		<path style="fill:#D30029;" d="M151.5,902l13.5,98l-25.875-59.5L151.5,902z"/>
		<path style="fill:#CA0112;" d="M165,1000h-39l13.125-59.5L165,1000z"/>
		<path style="fill:#C4000C;" d="M126,1000l-38.5-94l51.625,34.5L126,1000z"/>
		<path style="fill:#DF0918;" d="M151.5,902l41.5,24l-9.375,21.5L151.5,902z"/>
		<path style="fill:#E4112B;" d="M193,926l29,74l-38.375-52.5L193,926z"/>
		<path style="fill:#E11528;" d="M222,1000h-57l18.625-52.5L222,1000z"/>
		<path style="fill:#D00000;" d="M165,1000l-13.5-98l32.125,45.5L165,1000z"/>
		<path style="fill:#C10928;" d="M193,926l49.5-36l-19.25,42.5L193,926z"/>
		<path style="fill:#DA1E14;" d="M242.5,890L222,1000l1.25-67.5L242.5,890z"/>
		<path style="fill:#C10609;" d="M222,1000L222,1000l1.25-67.5L222,1000z"/>
		<path style="fill:#C10000;" d="M222,1000l-29-74l30.25,6.5L222,1000z"/>
		<path style="fill:#D2011D;" d="M242.5,890l72,34l-35.875,35.5L242.5,890z"/>
		<path style="fill:#DC002C;" d="M314.5,924l13.5,76l-49.375-40.5L314.5,924z"/>
		<path style="fill:#C8000F;" d="M328,1000H222l56.625-40.5L328,1000z"/>
		<path style="fill:#BC0308;" d="M222,1000l20.5-110l36.125,69.5L222,1000z"/>
		<path style="fill:#C70000;" d="M314.5,924l30.5-45l-19.625,108L314.5,924z"/>
		<path style="fill:#C2002A;" d="M345,879l20,121l-39.625-13L345,879z"/>
		<path style="fill:#B40700;" d="M365,1000h-37l-2.625-13L365,1000z"/>
		<path style="fill:#DD0813;" d="M328,1000l-13.5-76l10.875,63L328,1000z"/>
		<path style="fill:#BE001C;" d="M345,879l67,6l-44.75,52.75L345,879z"/>
		<path style="fill:#B3000D;" d="M412,885l-43,115l-1.75-62.25L412,885z"/>
		<path style="fill:#C5160D;" d="M369,1000h-4l2.25-62.25L369,1000z"/>
		<path style="fill:#C9000C;" d="M365,1000l-20-121l22.25,58.75L365,1000z"/>
		<path style="fill:#C01228;" d="M412,885l39.5,32l-17.25,42.25L412,885z"/>
		<path style="fill:#AF0600;" d="M451.5,917l-7.5,83l-9.75-40.75L451.5,917z"/>
		<path style="fill:#C6030E;" d="M444,1000h-75l65.25-40.75L444,1000z"/>
		<path style="fill:#B5052B;" d="M369,1000l43-115l22.25,74.25L369,1000z"/>
		<path style="fill:#B00000;" d="M451.5,917H509l-36.875,24.25L451.5,917z"/>
		<path style="fill:#D0070E;" d="M509,917l-14,83l-22.875-58.75L509,917z"/>
		<path style="fill:#AC0000;" d="M495,1000h-51l28.125-58.75L495,1000z"/>
		<path style="fill:#B60014;" d="M444,1000l7.5-83l20.625,24.25L444,1000z"/>
		<path style="fill:#A30000;" d="M509,917l44.5,7l-45.25-0.75L509,917z"/>
		<path style="fill:#BC0011;" d="M553.5,924l-26.5,76l-18.75-76.75L553.5,924z"/>
		<path style="fill:#B80300;" d="M527,1000h-32l13.25-76.75L527,1000z"/>
		<path style="fill:#B80800;" d="M495,1000l14-83l-0.75,6.25L495,1000z"/>
		<path style="fill:#9E0000;" d="M553.5,924l45-43l-32.625,54L553.5,924z"/>
		<path style="fill:#A80014;" d="M598.5,881L569,1000l-3.125-65L598.5,881z"/>
		<path style="fill:#CF1716;" d="M569,1000h-42l38.875-65L569,1000z"/>
		<path style="fill:#C30A18;" d="M527,1000l26.5-76l12.375,11L527,1000z"/>
		<path style="fill:#BF1B26;" d="M598.5,881l45,5l-36.625,68.25L598.5,881z"/>
		<path style="fill:#C30800;" d="M643.5,886l8.5,114l-45.125-45.75L643.5,886z"/>
		<path style="fill:#CA0012;" d="M652,1000h-83l37.875-45.75L652,1000z"/>
		<path style="fill:#B50518;" d="M569,1000l29.5-119l8.375,73.25L569,1000z"/>
		<path style="fill:#AB131B;" d="M643.5,886l59.5-1l-34.125,77.5L643.5,886z"/>
		<path style="fill:#A00F15;" d="M703,885l-27,115l-7.125-37.5L703,885z"/>
		<path style="fill:#AC0218;" d="M676,1000h-24l16.875-37.5L676,1000z"/>
		<path style="fill:#B00000;" d="M652,1000l-8.5-114l25.375,76.5L652,1000z"/>
		<path style="fill:#A10200;" d="M703,885l42,28l-9.75,24.25L703,885z"/>
		<path style="fill:#AB0013;" d="M745,913l17,87l-26.75-62.75L745,913z"/>
		<path style="fill:#BD0005;" d="M762,1000h-86l59.25-62.75L762,1000z"/>
		<path style="fill:#AC0006;" d="M676,1000l27-115l32.25,52.25L676,1000z"/>
		<path style="fill:#BD0400;" d="M745,913l70,1l-52.5,58.25L745,913z"/>
		<path style="fill:#B71D10;" d="M815,914l-10,86l-42.5-27.75L815,914z"/>
		<path style="fill:#B30000;" d="M805,1000h-43l0.5-27.75L805,1000z"/>
		<path style="fill:#BD0500;" d="M762,1000l-17-87l17.5,59.25L762,1000z"/>
		<path style="fill:#BD0000;" d="M815,914l35,11l-38.75,54.5L815,914z"/>
		<path style="fill:#B30B00;" d="M850,925l-19,75l-19.75-20.5L850,925z"/>
		<path style="fill:#B40400;" d="M831,1000h-26l6.25-20.5L831,1000z"/>
		<path style="fill:#A9001E;" d="M805,1000l10-86l-3.75,65.5L805,1000z"/>
		<path style="fill:#8A0000;" d="M850,925l45.5-36l-12,39.25L850,925z"/>
		<path style="fill:#940000;" d="M895.5,889l21.5,111l-33.5-71.75L895.5,889z"/>
		<path style="fill:#B50300;" d="M917,1000h-86l52.5-71.75L917,1000z"/>
		<path style="fill:#A90007;" d="M831,1000l19-75l33.5,3.25L831,1000z"/>
		<path style="fill:#9F0000;" d="M895.5,889l55.5,18l-31.625,12.25L895.5,889z"/>
		<path style="fill:#990E00;" d="M951,907l-24,93l-7.625-80.75L951,907z"/>
		<path style="fill:#A60400;" d="M927,1000h-10l2.375-80.75L927,1000z"/>
		<path style="fill:#AB0000;" d="M917,1000l-21.5-111l23.875,30.25L917,1000z"/>
		<path style="fill:#9C0000;" d="M951,907l49-17l-26.5,44.25L951,907z"/>
		<path style="fill:#AB0017;" d="M1000,890v110l-26.5-65.75L1000,890z"/>
		<path style="fill:#970004;" d="M1000,1000h-73l46.5-65.75L1000,1000z"/>
		<path style="fill:#91000B;" d="M927,1000l24-93l22.5,27.25L927,1000z"/>
	</g>
</g>
</svg>
